<svg width="76" height="76" viewBox="0 0 76 76" fill="none" xmlns="http://www.w3.org/2000/svg">
<path d="M0.62534 70.4953L14.3423 51.1C14.3471 51.0933 14.3423 51.0781 14.3389 51.0686L14.3201 51.0185C13.7091 49.3978 13.2074 47.7052 12.829 45.9869C12.6967 45.3864 13.0763 44.7922 13.6768 44.6599C14.2778 44.527 14.8715 44.9071 15.0038 45.5078C15.3595 47.122 15.8304 48.7116 16.4043 50.2337L16.4231 50.2838C16.6896 50.9909 16.5915 51.7768 16.1606 52.3859L2.44378 71.7812C2.22672 72.088 1.88287 72.2519 1.53367 72.2519C1.31141 72.2519 1.08693 72.1855 0.891693 72.0473C0.389572 71.6925 0.270351 70.9975 0.62534 70.4953Z" fill="white" fill-opacity="0.1"/>
<path d="M14.2725 35.8431C14.1607 37.5265 14.1757 39.2462 14.3172 40.9543C14.3679 41.5672 13.9121 42.1052 13.2994 42.156C12.6864 42.2066 12.1486 41.751 12.0977 41.1383C11.9472 39.3201 11.9311 37.489 12.0505 35.6957C12.4785 29.2541 13.0723 20.3181 13.405 15.2918C13.5865 12.5478 15.8023 10.3597 18.559 10.2022L18.6554 10.1967C21.3372 10.042 23.7241 11.9216 24.2041 14.5661L25.993 24.4217C26.4663 24.7112 26.9245 25.0202 27.3693 25.3448L31.7569 19.141C32.1121 18.6389 32.807 18.5195 33.3089 18.875C33.8111 19.2301 33.9303 19.9249 33.5751 20.427L29.0979 26.7576C32.8837 30.2117 35.3008 35.0144 35.7443 40.1983L35.949 42.5918C36.0014 43.2045 35.5473 43.7437 34.9345 43.7961C34.9023 43.799 34.8702 43.8001 34.8385 43.8001C34.2664 43.8001 33.7799 43.362 33.7303 42.7817L33.5256 40.3882C33.0289 34.5837 29.7595 29.3135 24.78 26.2905C24.272 25.9823 23.9198 25.4701 23.8138 24.8856L22.0129 14.9638C21.7335 13.4242 20.3435 12.3325 18.7826 12.42L18.6863 12.4255C17.0499 12.5192 15.7346 13.8146 15.6272 15.4389C15.2942 20.4652 14.7007 29.4015 14.2725 35.8431Z" fill="white" fill-opacity="0.1"/>
<path d="M38.0062 68.6434C38.478 67.9765 39.1105 67.4245 39.8355 67.0473L40.1666 66.8751C42.8712 65.4682 45.2602 63.426 47.0752 60.9693C47.4406 60.4746 48.1378 60.37 48.6325 60.7354C49.1272 61.1007 49.2319 61.7979 48.8665 62.2925C46.8512 65.0206 44.1982 67.2883 41.1944 68.8508L40.8633 69.023C40.4516 69.2373 40.0925 69.5507 39.8245 69.9294L35.8641 75.5293C35.647 75.8361 35.3032 76 34.954 76C34.7317 76 34.5072 75.9336 34.312 75.7954C33.8099 75.4403 33.6907 74.7454 34.0458 74.2433L38.0062 68.6434Z" fill="white" fill-opacity="0.1"/>
<path d="M68.2967 31.0038C69.4013 29.4418 69.0294 27.2722 67.4674 26.1674C66.7106 25.6323 65.7907 25.4236 64.8775 25.5805C63.964 25.7372 63.1663 26.24 62.6312 26.9969L54.0507 39.0993C53.8337 39.4061 53.4898 39.57 53.1406 39.57C52.9184 39.57 52.6939 39.5036 52.4986 39.3654C51.9965 39.0103 51.8773 38.3154 52.2324 37.8133L65.275 19.3714C65.81 18.6147 66.0185 17.6949 65.8619 16.7814C65.7052 15.868 65.2024 15.0703 64.4456 14.5351C63.689 14 62.7695 13.7909 61.8557 13.9482C60.9423 14.1048 60.1446 14.6078 59.6095 15.3644L47.0295 33.1523C46.8124 33.459 46.4686 33.6229 46.1194 33.6229C45.8971 33.6229 45.6727 33.5566 45.4774 33.4183C44.9753 33.0632 44.8561 32.3684 45.2112 31.8662L60.7458 9.90062C61.2809 9.14388 61.4893 8.22411 61.3327 7.31059C61.176 6.39721 60.673 5.59949 59.9163 5.06426C59.1595 4.52918 58.2395 4.32028 57.3264 4.47736C56.413 4.634 55.6153 5.13701 55.0801 5.89375L39.2037 28.3425C38.9867 28.6492 38.6428 28.8131 38.2936 28.8131C38.0714 28.8131 37.8469 28.7468 37.6516 28.6085C37.1495 28.2534 37.0303 27.5586 37.3854 27.0565L51.0579 7.72407C52.1619 6.16203 51.7897 3.99306 50.228 2.88845C49.4712 2.35337 48.5512 2.14462 47.6381 2.30156C46.7247 2.45819 45.927 2.96105 45.3917 3.71795L36.3276 16.5343C35.9725 17.0363 35.2776 17.1555 34.7755 16.8004C34.2734 16.4453 34.1542 15.7504 34.5093 15.2483L43.5735 2.43191C44.4521 1.18953 45.7619 0.363596 47.2617 0.106448C48.7614 -0.150551 50.2716 0.191521 51.514 1.07016C52.5943 1.83418 53.3264 2.90879 53.6781 4.08793C54.5312 3.13565 55.6711 2.50154 56.9502 2.28225C58.4499 2.02496 59.9601 2.36733 61.2025 3.24582C62.4448 4.12445 63.2706 5.43424 63.5279 6.93407C63.7852 8.4339 63.443 9.94397 62.5644 11.1865L62.218 11.6762C63.4678 11.6243 64.6934 11.9824 65.7316 12.7168C66.974 13.5953 67.7998 14.905 68.057 16.4049C68.3141 17.9047 67.9719 19.4148 67.0934 20.6573L65.2175 23.3096C66.4753 23.2524 67.709 23.6104 68.7534 24.3491C71.3179 26.163 71.9289 29.7249 70.1147 32.29L51.6375 58.386C51.4205 58.6924 51.0768 58.8562 50.7279 58.8562C50.5053 58.8562 50.2807 58.7897 50.0853 58.6513C49.5835 58.2959 49.4645 57.601 49.82 57.0991L68.2967 31.0038Z" fill="white" fill-opacity="0.1"/>
<path d="M60.3335 65.1977C68.1438 64.5376 73.961 57.6465 73.301 49.8363L73.2517 49.2538C73.1998 48.641 73.6545 48.1022 74.2674 48.0503C74.8803 48.0003 75.4189 48.4533 75.4707 49.066L75.52 49.6486C76.2836 58.6825 69.555 66.6532 60.5211 67.4169C60.4892 67.4195 60.4576 67.4207 60.4261 67.4207C59.8536 67.4207 59.367 66.9819 59.3178 66.4011C59.266 65.7882 59.7208 65.2495 60.3335 65.1977Z" fill="white" fill-opacity="0.1"/>
<path d="M59.7835 58.6882C64.0046 58.3315 67.1484 54.6072 66.7918 50.3862L66.7425 49.8042C66.6907 49.1915 67.1454 48.6527 67.7581 48.6009C68.3722 48.5496 68.9098 49.0038 68.9615 49.6167L69.0108 50.1987C69.471 55.6433 65.4158 60.4473 59.971 60.9076C59.9391 60.9102 59.9073 60.9114 59.876 60.9114C59.3035 60.9114 58.8168 60.4725 58.7676 59.8917C58.716 59.2789 59.1707 58.7402 59.7835 58.6882Z" fill="white" fill-opacity="0.1"/>
<path d="M35.8587 2.22703C30.9617 2.22703 26.9777 6.21103 26.9777 11.1078V11.2809C26.9777 11.896 26.4792 12.3944 25.8642 12.3944C25.2492 12.3944 24.7507 11.896 24.7507 11.2809V11.1078C24.7507 4.9829 29.7336 0 35.8587 0C36.4736 0 36.9722 0.498409 36.9722 1.11351C36.9722 1.72862 36.4736 2.22703 35.8587 2.22703Z" fill="white" fill-opacity="0.1"/>
<path d="M35.8587 8.75965C34.5637 8.75965 33.5103 9.81304 33.5103 11.1078V11.2809C33.5103 11.8961 33.0118 12.3945 32.3968 12.3945C31.7818 12.3945 31.2833 11.8961 31.2833 11.2809V11.1078C31.2833 8.58505 33.3357 6.53262 35.8587 6.53262C36.4736 6.53262 36.9722 7.03103 36.9722 7.64614C36.9722 8.26124 36.4736 8.75965 35.8587 8.75965Z" fill="white" fill-opacity="0.1"/>
</svg>
