<svg width="76" height="76" viewBox="0 0 76 76" fill="none" xmlns="http://www.w3.org/2000/svg">
<path d="M0.62534 70.4954L14.3423 51.1001C14.3471 51.0934 14.3423 51.0781 14.3389 51.0686L14.3201 51.0185C13.7091 49.3979 13.2074 47.7052 12.829 45.987C12.6967 45.3864 13.0763 44.7922 13.6768 44.6599C14.2778 44.5271 14.8715 44.9071 15.0038 45.5079C15.3595 47.122 15.8304 48.7116 16.4043 50.2337L16.4231 50.2838C16.6896 50.9909 16.5915 51.7768 16.1606 52.3859L2.44378 71.7813C2.22672 72.088 1.88287 72.2519 1.53367 72.2519C1.31141 72.2519 1.08693 72.1855 0.891693 72.0473C0.389572 71.6925 0.270351 70.9975 0.62534 70.4954Z" fill="white" fill-opacity="0.8"/>
<path d="M14.2725 35.8431C14.1607 37.5265 14.1757 39.2462 14.3172 40.9543C14.3679 41.5672 13.9121 42.1052 13.2994 42.156C12.6864 42.2067 12.1486 41.751 12.0977 41.1383C11.9472 39.3201 11.9311 37.4891 12.0505 35.6957C12.4785 29.2541 13.0723 20.3181 13.405 15.2918C13.5865 12.5478 15.8023 10.3597 18.559 10.2022L18.6554 10.1967C21.3372 10.042 23.7241 11.9216 24.2041 14.5661L25.993 24.4218C26.4663 24.7113 26.9245 25.0202 27.3693 25.3448L31.7569 19.141C32.1121 18.6389 32.807 18.5195 33.3089 18.875C33.8111 19.2301 33.9303 19.9249 33.5751 20.4271L29.0979 26.7576C32.8837 30.2117 35.3008 35.0144 35.7443 40.1983L35.949 42.5918C36.0014 43.2045 35.5473 43.7437 34.9345 43.7962C34.9023 43.799 34.8702 43.8002 34.8385 43.8002C34.2664 43.8002 33.7799 43.362 33.7303 42.7817L33.5256 40.3882C33.0289 34.5837 29.7595 29.3135 24.78 26.2905C24.272 25.9823 23.9198 25.4701 23.8138 24.8856L22.0129 14.9639C21.7335 13.4242 20.3435 12.3326 18.7826 12.42L18.6863 12.4255C17.0499 12.5192 15.7346 13.8146 15.6272 15.439C15.2942 20.4652 14.7007 29.4015 14.2725 35.8431Z" fill="white" fill-opacity="0.8"/>
<path d="M38.0062 68.6434C38.478 67.9765 39.1105 67.4245 39.8355 67.0474L40.1666 66.8751C42.8712 65.4683 45.2602 63.4261 47.0752 60.9694C47.4406 60.4747 48.1378 60.37 48.6325 60.7354C49.1272 61.1008 49.2319 61.798 48.8665 62.2925C46.8512 65.0206 44.1982 67.2883 41.1944 68.8508L40.8633 69.023C40.4516 69.2373 40.0925 69.5507 39.8245 69.9294L35.8641 75.5294C35.647 75.8361 35.3032 76 34.954 76C34.7317 76 34.5072 75.9336 34.312 75.7954C33.8099 75.4403 33.6907 74.7454 34.0458 74.2433L38.0062 68.6434Z" fill="white" fill-opacity="0.8"/>
<path d="M68.2967 31.0038C69.4013 29.4418 69.0294 27.2722 67.4674 26.1674C66.7106 25.6324 65.7907 25.4236 64.8775 25.5806C63.964 25.7372 63.1663 26.2401 62.6312 26.9969L54.0507 39.0994C53.8337 39.4061 53.4898 39.57 53.1406 39.57C52.9184 39.57 52.6939 39.5036 52.4986 39.3654C51.9965 39.0103 51.8773 38.3154 52.2324 37.8133L65.275 19.3715C65.81 18.6147 66.0185 17.6949 65.8619 16.7814C65.7052 15.868 65.2024 15.0703 64.4456 14.5351C63.689 14 62.7695 13.791 61.8557 13.9482C60.9423 14.1048 60.1446 14.6078 59.6095 15.3644L47.0295 33.1523C46.8124 33.459 46.4686 33.6229 46.1194 33.6229C45.8971 33.6229 45.6727 33.5566 45.4774 33.4184C44.9753 33.0632 44.8561 32.3684 45.2112 31.8663L60.7458 9.90064C61.2809 9.1439 61.4893 8.22414 61.3327 7.31061C61.176 6.39723 60.673 5.59951 59.9163 5.06428C59.1595 4.5292 58.2395 4.32031 57.3264 4.47739C56.413 4.63402 55.6153 5.13703 55.0801 5.89378L39.2037 28.3425C38.9867 28.6493 38.6428 28.8132 38.2936 28.8132C38.0714 28.8132 37.8469 28.7468 37.6516 28.6086C37.1495 28.2534 37.0303 27.5586 37.3854 27.0565L51.0579 7.7241C52.1619 6.16206 51.7897 3.99308 50.228 2.88848C49.4712 2.3534 48.5512 2.14465 47.6381 2.30158C46.7247 2.45821 45.927 2.96108 45.3917 3.71797L36.3276 16.5344C35.9725 17.0363 35.2776 17.1556 34.7755 16.8004C34.2734 16.4453 34.1542 15.7505 34.5093 15.2483L43.5735 2.43194C44.4521 1.18955 45.7619 0.363621 47.2617 0.106473C48.7614 -0.150526 50.2716 0.191546 51.514 1.07018C52.5943 1.8342 53.3264 2.90882 53.6781 4.08795C54.5312 3.13568 55.6711 2.50157 56.9502 2.28228C58.4499 2.02498 59.9601 2.36735 61.2025 3.24584C62.4448 4.12448 63.2706 5.43427 63.5279 6.93409C63.7852 8.43392 63.443 9.944 62.5644 11.1865L62.218 11.6762C63.4678 11.6244 64.6934 11.9825 65.7316 12.7168C66.974 13.5953 67.7998 14.9051 68.057 16.4049C68.3141 17.9047 67.9719 19.4148 67.0934 20.6573L65.2175 23.3096C66.4753 23.2524 67.709 23.6104 68.7534 24.3492C71.3179 26.163 71.9289 29.7249 70.1147 32.29L51.6375 58.386C51.4205 58.6925 51.0768 58.8562 50.7279 58.8562C50.5053 58.8562 50.2807 58.7897 50.0853 58.6513C49.5835 58.2959 49.4645 57.6011 49.82 57.0991L68.2967 31.0038Z" fill="white" fill-opacity="0.8"/>
<path d="M60.3335 65.1977C68.1438 64.5376 73.961 57.6465 73.301 49.8363L73.2517 49.2539C73.1998 48.641 73.6545 48.1022 74.2674 48.0504C74.8803 48.0003 75.4189 48.4533 75.4707 49.066L75.52 49.6486C76.2836 58.6825 69.555 66.6532 60.5211 67.4169C60.4892 67.4196 60.4576 67.4208 60.4261 67.4208C59.8536 67.4208 59.367 66.9819 59.3178 66.4011C59.266 65.7882 59.7208 65.2496 60.3335 65.1977Z" fill="white" fill-opacity="0.8"/>
<path d="M59.7835 58.6883C64.0046 58.3315 67.1484 54.6072 66.7918 50.3862L66.7425 49.8042C66.6907 49.1915 67.1454 48.6527 67.7581 48.6009C68.3722 48.5497 68.9098 49.0038 68.9615 49.6167L69.0108 50.1987C69.471 55.6433 65.4158 60.4473 59.971 60.9076C59.9391 60.9103 59.9073 60.9114 59.876 60.9114C59.3035 60.9114 58.8168 60.4726 58.7676 59.8918C58.716 59.2789 59.1707 58.7402 59.7835 58.6883Z" fill="white" fill-opacity="0.8"/>
<path d="M35.8587 2.22704C30.9617 2.22704 26.9777 6.21105 26.9777 11.1078V11.2809C26.9777 11.8961 26.4792 12.3945 25.8642 12.3945C25.2492 12.3945 24.7507 11.8961 24.7507 11.2809V11.1078C24.7507 4.98291 29.7336 1.33514e-05 35.8587 1.33514e-05C36.4736 1.33514e-05 36.9722 0.498422 36.9722 1.11353C36.9722 1.72863 36.4736 2.22704 35.8587 2.22704Z" fill="white" fill-opacity="0.8"/>
<path d="M35.8587 8.75966C34.5637 8.75966 33.5103 9.81305 33.5103 11.1078V11.281C33.5103 11.8961 33.0118 12.3945 32.3968 12.3945C31.7818 12.3945 31.2833 11.8961 31.2833 11.281V11.1078C31.2833 8.58507 33.3357 6.53263 35.8587 6.53263C36.4736 6.53263 36.9722 7.03104 36.9722 7.64615C36.9722 8.26125 36.4736 8.75966 35.8587 8.75966Z" fill="white" fill-opacity="0.8"/>
</svg>
