<svg width="76" height="76" viewBox="0 0 76 76" fill="none" xmlns="http://www.w3.org/2000/svg">
<path d="M75.3747 70.4953L61.6577 51.1C61.6529 51.0933 61.6577 51.0781 61.6611 51.0686L61.6799 51.0185C62.2909 49.3978 62.7926 47.7052 63.171 45.9869C63.3033 45.3864 62.9237 44.7922 62.3232 44.6599C61.7222 44.527 61.1285 44.9071 60.9962 45.5078C60.6405 47.122 60.1696 48.7116 59.5957 50.2337L59.5769 50.2838C59.3104 50.9909 59.4085 51.7768 59.8394 52.3859L73.5562 71.7812C73.7733 72.088 74.1171 72.2519 74.4663 72.2519C74.6886 72.2519 74.9131 72.1855 75.1083 72.0473C75.6104 71.6925 75.7296 70.9975 75.3747 70.4953Z" fill="white" fill-opacity="0.1"/>
<path d="M61.7275 35.8431C61.8393 37.5265 61.8243 39.2462 61.6828 40.9543C61.6321 41.5672 62.0879 42.1052 62.7006 42.156C63.3136 42.2066 63.8514 41.751 63.9023 41.1383C64.0528 39.3201 64.0689 37.489 63.9495 35.6957C63.5215 29.2541 62.9277 20.3181 62.595 15.2918C62.4135 12.5478 60.1977 10.3597 57.441 10.2022L57.3446 10.1967C54.6628 10.042 52.2759 11.9216 51.7959 14.5661L50.007 24.4217C49.5337 24.7112 49.0755 25.0202 48.6307 25.3448L44.2431 19.141C43.8879 18.6389 43.193 18.5195 42.6911 18.875C42.1889 19.2301 42.0697 19.9249 42.4249 20.427L46.9021 26.7576C43.1163 30.2117 40.6992 35.0144 40.2557 40.1983L40.051 42.5918C39.9986 43.2045 40.4527 43.7437 41.0655 43.7961C41.0977 43.799 41.1298 43.8001 41.1615 43.8001C41.7336 43.8001 42.2201 43.362 42.2697 42.7817L42.4744 40.3882C42.9711 34.5837 46.2405 29.3135 51.22 26.2905C51.728 25.9823 52.0802 25.4701 52.1862 24.8856L53.9871 14.9638C54.2665 13.4242 55.6565 12.3325 57.2174 12.42L57.3137 12.4255C58.9501 12.5192 60.2654 13.8146 60.3728 15.4389C60.7058 20.4652 61.2993 29.4015 61.7275 35.8431Z" fill="white" fill-opacity="0.1"/>
<path d="M37.9938 68.6434C37.522 67.9765 36.8895 67.4245 36.1645 67.0473L35.8334 66.8751C33.1288 65.4682 30.7398 63.426 28.9248 60.9693C28.5594 60.4746 27.8622 60.37 27.3675 60.7354C26.8728 61.1007 26.7681 61.7979 27.1335 62.2925C29.1488 65.0206 31.8018 67.2883 34.8056 68.8508L35.1367 69.023C35.5484 69.2373 35.9075 69.5507 36.1755 69.9294L40.1359 75.5293C40.353 75.8361 40.6968 76 41.046 76C41.2683 76 41.4928 75.9336 41.688 75.7954C42.1901 75.4403 42.3093 74.7454 41.9542 74.2433L37.9938 68.6434Z" fill="white" fill-opacity="0.1"/>
<path d="M7.70326 31.0038C6.59866 29.4418 6.97057 27.2722 8.53261 26.1674C9.28935 25.6323 10.2093 25.4236 11.1225 25.5805C12.036 25.7372 12.8337 26.24 13.3688 26.9969L21.9493 39.0993C22.1663 39.4061 22.5102 39.57 22.8594 39.57C23.0816 39.57 23.3061 39.5036 23.5014 39.3654C24.0035 39.0103 24.1227 38.3154 23.7676 37.8133L10.725 19.3714C10.19 18.6147 9.98151 17.6949 10.1381 16.7814C10.2948 15.868 10.7976 15.0703 11.5544 14.5351C12.311 14 13.2305 13.7909 14.1443 13.9482C15.0577 14.1048 15.8554 14.6078 16.3905 15.3644L28.9705 33.1523C29.1876 33.459 29.5314 33.6229 29.8806 33.6229C30.1029 33.6229 30.3273 33.5566 30.5226 33.4183C31.0247 33.0632 31.1439 32.3684 30.7888 31.8662L15.2542 9.90062C14.7191 9.14388 14.5107 8.22411 14.6673 7.31059C14.824 6.39721 15.327 5.59949 16.0837 5.06426C16.8405 4.52918 17.7605 4.32028 18.6736 4.47736C19.587 4.634 20.3847 5.13701 20.9199 5.89375L36.7963 28.3425C37.0133 28.6492 37.3572 28.8131 37.7064 28.8131C37.9286 28.8131 38.1531 28.7468 38.3484 28.6085C38.8505 28.2534 38.9697 27.5586 38.6146 27.0565L24.9421 7.72407C23.8381 6.16203 24.2103 3.99306 25.772 2.88845C26.5288 2.35337 27.4488 2.14462 28.3619 2.30156C29.2753 2.45819 30.073 2.96105 30.6083 3.71795L39.6724 16.5343C40.0275 17.0363 40.7224 17.1555 41.2245 16.8004C41.7266 16.4453 41.8458 15.7504 41.4907 15.2483L32.4265 2.43191C31.5479 1.18953 30.2381 0.363596 28.7383 0.106448C27.2386 -0.150551 25.7284 0.191521 24.486 1.07016C23.4057 1.83418 22.6736 2.90879 22.3219 4.08793C21.4688 3.13565 20.3289 2.50154 19.0498 2.28225C17.5501 2.02496 16.0399 2.36733 14.7975 3.24582C13.5552 4.12445 12.7294 5.43424 12.4721 6.93407C12.2148 8.4339 12.557 9.94397 13.4356 11.1865L13.782 11.6762C12.5322 11.6243 11.3066 11.9824 10.2684 12.7168C9.02597 13.5953 8.20019 14.905 7.94304 16.4049C7.68589 17.9047 8.02811 19.4148 8.9066 20.6573L10.7825 23.3096C9.52468 23.2524 8.29105 23.6104 7.24657 24.3491C4.68208 26.163 4.07113 29.7249 5.88526 32.29L24.3625 58.386C24.5795 58.6924 24.9232 58.8562 25.2721 58.8562C25.4947 58.8562 25.7193 58.7897 25.9147 58.6513C26.4165 58.2959 26.5355 57.601 26.18 57.0991L7.70326 31.0038Z" fill="white" fill-opacity="0.1"/>
<path d="M15.6665 65.1977C7.85618 64.5376 2.03904 57.6465 2.69898 49.8363L2.74827 49.2538C2.80024 48.641 2.34548 48.1022 1.7326 48.0503C1.11972 48.0003 0.581076 48.4533 0.529261 49.066L0.479969 49.6486C-0.283605 58.6825 6.44499 66.6532 15.4789 67.4169C15.5108 67.4195 15.5424 67.4207 15.5739 67.4207C16.1464 67.4207 16.633 66.9819 16.6822 66.4011C16.734 65.7882 16.2792 65.2495 15.6665 65.1977Z" fill="white" fill-opacity="0.1"/>
<path d="M16.2165 58.6882C11.9954 58.3315 8.85161 54.6072 9.20823 50.3862L9.25752 49.8042C9.30934 49.1915 8.85458 48.6527 8.24185 48.6009C7.62779 48.5496 7.09018 49.0038 7.03851 49.6167L6.98922 50.1987C6.52897 55.6433 10.5842 60.4473 16.029 60.9076C16.0609 60.9102 16.0927 60.9114 16.124 60.9114C16.6965 60.9114 17.1832 60.4725 17.2324 59.8917C17.284 59.2789 16.8293 58.7402 16.2165 58.6882Z" fill="white" fill-opacity="0.1"/>
<path d="M40.1413 2.22703C45.0383 2.22703 49.0223 6.21103 49.0223 11.1078V11.2809C49.0223 11.896 49.5208 12.3944 50.1358 12.3944C50.7508 12.3944 51.2493 11.896 51.2493 11.2809V11.1078C51.2493 4.9829 46.2664 0 40.1413 0C39.5264 0 39.0278 0.498409 39.0278 1.11351C39.0278 1.72862 39.5264 2.22703 40.1413 2.22703Z" fill="white" fill-opacity="0.1"/>
<path d="M40.1413 8.75965C41.4363 8.75965 42.4897 9.81304 42.4897 11.1078V11.2809C42.4897 11.8961 42.9882 12.3945 43.6032 12.3945C44.2182 12.3945 44.7167 11.8961 44.7167 11.2809V11.1078C44.7167 8.58505 42.6643 6.53262 40.1413 6.53262C39.5264 6.53262 39.0278 7.03103 39.0278 7.64614C39.0278 8.26124 39.5264 8.75965 40.1413 8.75965Z" fill="white" fill-opacity="0.1"/>
</svg>
