<svg width="79" height="67" viewBox="0 0 79 67" fill="none" xmlns="http://www.w3.org/2000/svg">
<path d="M56.5169 55.9981C54.4904 55.9981 52.8403 54.3505 52.8403 52.3216V50.7612C52.8403 49.652 51.9405 48.7497 50.8288 48.7497V28.3728C50.8288 26.9645 49.6847 25.8229 48.2789 25.8229C46.8781 25.8229 45.734 26.9645 45.734 28.3728V48.7522H43.9916V32.2039C43.9916 30.7956 42.8475 29.654 41.4417 29.654C40.0334 29.654 38.8943 30.7931 38.8943 32.2039V48.7522H36.3469V28.3728C36.3469 26.9645 35.2078 25.8229 33.7995 25.8229C32.3911 25.8229 31.2545 26.9645 31.2545 28.3728V48.7522H29.1084V32.2039C29.1084 30.7956 27.9643 29.654 26.556 29.654C25.1502 29.654 24.0086 30.7931 24.0086 32.2039V48.7522H21.4587V28.3728C21.4587 26.9645 20.3171 25.8229 18.9088 25.8229C17.5029 25.8229 16.3638 26.9645 16.3638 28.3728V48.7522H14.4844V32.2039C14.4844 30.7956 13.3453 29.654 11.937 29.654C10.5287 29.654 9.38957 30.7931 9.38957 32.2039V48.7522H6.83965V28.3728C6.83965 26.9645 5.69805 25.8229 4.29223 25.8229C2.88392 25.8229 1.74481 26.9645 1.74481 28.3728V48.7522C0.780179 48.7522 0 49.5323 0 50.497V56.2573C0 62.1872 4.8082 66.9979 10.7381 66.9979H74.7477C77.0932 66.9979 79 65.0936 79 62.7455V60.4374C79 57.9872 77.0109 56.0006 74.5607 56.0006H56.5169V55.9981Z" fill="white"/>
<path d="M16.0473 21.052C20.4691 21.239 25.043 21.3013 29.1757 21.3013C37.4461 21.3013 43.9567 21.052 43.9567 21.052C43.9567 21.052 44.0789 21.0446 44.2982 21.0446C45.5819 21.0446 50.2181 21.1767 53.6729 22.9614C54.4082 23.3402 55.2905 23.2804 55.966 22.8018C56.6415 22.3282 56.993 21.5132 56.8833 20.6956C56.1804 15.4961 53.8299 8.11303 46.3471 4.97237C43.4931 3.77593 40.3948 3.35469 37.2118 3.35469C29.4649 3.34721 21.187 5.86223 14.5667 5.86223C11.755 5.86223 9.24002 5.40608 7.19111 4.11493C7.19111 4.11493 5.67313 2.98578 4.46921 0.941864C4.07787 0.281329 3.3276 -0.0800961 2.56736 0.0245925C1.80713 0.129281 1.18398 0.680142 0.987065 1.42044C0.286649 4.0576 -0.0523431 7.55968 1.13662 11.4282C1.13662 11.4257 3.68404 20.5261 16.0473 21.052ZM3.12072 3.50923C4.34707 5.16181 5.56844 6.08656 5.66316 6.15635C5.71799 6.19873 5.77034 6.23113 5.82767 6.2735C8.11087 7.70923 10.9649 8.40217 14.5617 8.40217C17.9466 8.40217 21.5733 7.81642 25.4194 7.19327C29.3352 6.55267 33.3857 5.89463 37.2068 5.89712C40.4048 5.89712 43.0744 6.36324 45.3551 7.3179C51.3921 9.85286 53.5208 15.8675 54.2461 20.4114C54.2063 20.394 54.1739 20.379 54.134 20.3641C46.0555 4.92252 24.2653 15.5459 13.1833 13.7313C5.92488 12.5399 3.67407 7.74911 3.00606 4.28941C3.03846 4.02021 3.07834 3.76347 3.12072 3.50923Z" fill="white"/>
</svg>
