<svg width="17" height="17" viewBox="0 0 17 17" fill="none" xmlns="http://www.w3.org/2000/svg">
<path d="M15.6994 1.90227C14.8179 0.91532 13.6047 0.371826 12.2831 0.371826C11.25 0.371826 10.1357 0.986532 9.32146 1.43566C9.02505 1.59928 8.61973 1.82297 8.49992 1.83769C8.38065 1.82322 7.97741 1.60011 7.68171 1.43654C6.8696 0.987199 5.75737 0.371826 4.7169 0.371826C3.39534 0.371826 2.18207 0.91532 1.3005 1.90227C0.461853 2.8412 0 4.07712 0 5.38233C0 7.24689 0.669564 9.89845 1.79105 12.4755C2.28999 13.6221 2.8211 14.6128 3.32692 15.3406C3.92898 16.207 4.44565 16.628 4.90651 16.628C5.111 16.628 5.48546 16.5413 5.69555 15.9602C5.89971 15.3956 6.08335 14.7476 6.27809 14.0601C6.79347 12.241 7.43483 9.97692 8.46742 9.97692H8.53262C8.99172 9.97692 9.40268 10.3701 9.78894 11.1791C10.1716 11.9805 10.4625 13.0461 10.7442 14.0779C10.9304 14.76 11.1063 15.4041 11.3039 15.9587C11.5097 16.5361 11.8799 16.6225 12.0826 16.6226C12.5411 16.6226 13.0573 16.1951 13.6606 15.3157C14.1652 14.5803 14.6974 13.5798 15.1998 12.4221C16.327 9.82432 17 7.19266 17 5.38229C17 4.07708 16.5381 2.84116 15.6994 1.90227ZM11.9644 3.24073C11.9538 3.24002 10.8863 3.18892 9.91447 2.93156C9.47627 2.81555 8.95814 2.58243 8.95814 2.51326C8.95814 2.44593 9.52107 2.11816 9.65682 2.04323C10.4046 1.63073 11.4285 1.06579 12.2831 1.06579C14.8012 1.06579 16.306 3.2605 16.306 5.38233C16.306 7.07689 15.6382 9.66854 14.5631 12.1458C14.0852 13.2473 13.5614 14.2336 13.0884 14.923C12.5427 15.7184 12.1895 15.9497 12.0826 15.9286C12.0169 15.9156 12.0087 15.8691 11.9577 15.7257C11.7686 15.1953 11.5961 14.5633 11.4134 13.8941C11.1239 12.8341 10.8248 11.7379 10.4152 10.88C9.902 9.80529 9.28621 9.28287 8.53262 9.28287H8.46742C7.74149 9.28287 7.13993 9.80112 6.62847 10.8672C6.22023 11.7181 5.91018 12.8125 5.6104 13.8709C5.41934 14.5453 5.23891 15.1824 5.04296 15.7242C4.9997 15.8438 4.98635 15.9219 4.90651 15.934C4.84393 15.9435 4.57665 15.9228 3.89678 14.9445C3.42345 14.2635 2.90161 13.2883 2.42737 12.1985C1.35815 9.74163 0.693969 7.12983 0.693969 5.38229C0.693969 3.26046 2.19876 1.06575 4.7169 1.06575C5.37145 1.06575 6.23162 1.36399 7.01782 1.86356C7.13313 1.93685 7.29549 2.06163 7.45252 2.18236C7.51518 2.23054 7.57692 2.27798 7.63441 2.32124C7.81871 2.45928 8.06777 2.63979 8.3602 2.81196C8.4849 2.88555 8.64005 2.97716 8.80483 3.04708C9.43497 3.31457 10.1031 3.45019 10.7907 3.45019C11.4912 3.45019 11.9624 3.32558 11.967 3.32412C11.967 3.32412 12.0725 3.29626 12.0691 3.26885C12.0658 3.24144 11.9644 3.24073 11.9644 3.24073Z" fill="#606060"/>
</svg>
