<svg width="23" height="24" viewBox="0 0 23 24" fill="none" xmlns="http://www.w3.org/2000/svg">
<path d="M22.3262 22.9609C21.954 22.9609 21.6523 22.6592 21.6523 22.2871V2.52148C21.6523 2.14994 21.3501 1.84766 20.9785 1.84766C20.607 1.84766 20.3047 2.14994 20.3047 2.52148V4.31836C20.3047 5.43301 19.3978 6.33984 18.2832 6.33984H16.8457C16.4736 6.33984 16.1719 6.03815 16.1719 5.66602C16.1719 5.29388 16.4736 4.99219 16.8457 4.99219H18.2832C18.6548 4.99219 18.957 4.68991 18.957 4.31836V2.52148C18.957 1.40684 19.8639 0.5 20.9785 0.5C22.0932 0.5 23 1.40684 23 2.52148V22.2871C23 22.6592 22.6983 22.9609 22.3262 22.9609Z" fill="#AFC5E6"/>
<path d="M0 6.33984V20.1309C0 21.9886 1.5114 23.5 3.36914 23.5H14.1504C16.0081 23.5 17.5195 21.9886 17.5195 20.1309V6.33984L8.75977 4.54297L0 6.33984Z" fill="#92D2FF"/>
<path d="M8.75977 4.54297V23.5H14.1504C16.0081 23.5 17.5195 21.9886 17.5195 20.1309V6.33984L8.75977 4.54297Z" fill="#7898F2"/>
<path d="M11.4551 8.13672H6.06445C5.80921 8.13672 5.57588 7.99252 5.46174 7.76423L4.74954 6.33984H0V3.86914C0 2.00843 1.50843 0.5 3.36914 0.5H14.1504C16.0111 0.5 17.5195 2.00843 17.5195 3.86914V6.33984H12.77L12.0578 7.76423C11.9436 7.99252 11.7103 8.13672 11.4551 8.13672Z" fill="#F0F9FF"/>
<path d="M14.1504 0.5H8.75977V8.13672H11.4551C11.7103 8.13672 11.9436 7.99252 12.0577 7.76423L12.77 6.33984H17.5195V3.86914C17.5195 2.00843 16.0111 0.5 14.1504 0.5Z" fill="#D2E6FB"/>
<path d="M10.7812 21.3887C9.79045 21.3887 8.98438 20.5826 8.98438 19.5918V19.2901C8.98438 18.9334 8.90684 18.5885 8.75977 18.2748C8.61269 18.5885 8.53516 18.9334 8.53516 19.2901V19.5918C8.53516 20.5826 7.72908 21.3887 6.73828 21.3887C6.25613 21.3887 5.80476 21.2016 5.46533 20.862C5.1259 20.5224 4.93912 20.0709 4.93938 19.5908L4.94118 16.5043C3.84976 15.9275 3.14453 14.785 3.14453 13.5273C3.14453 11.6696 4.65593 10.1582 6.51367 10.1582C7.35398 10.1582 8.14932 10.4694 8.75977 11.0165C9.37021 10.4694 10.1656 10.1582 11.0059 10.1582C12.8636 10.1582 14.375 11.6696 14.375 13.5273C14.375 14.7851 13.6696 15.9277 12.5781 16.5044V19.5918C12.5781 20.5826 11.772 21.3887 10.7812 21.3887Z" fill="#F0F9FF"/>
<path d="M11.0059 10.1582C10.1656 10.1582 9.37021 10.4694 8.75977 11.0165V18.2748C8.90684 18.5885 8.98438 18.9334 8.98438 19.2901V19.5918C8.98438 20.5826 9.79045 21.3887 10.7812 21.3887C11.772 21.3887 12.5781 20.5826 12.5781 19.5918V16.5044C13.6696 15.9277 14.375 14.7851 14.375 13.5273C14.375 11.6696 12.8636 10.1582 11.0059 10.1582Z" fill="#D2E6FB"/>
</svg>
