<svg width="17" height="17" viewBox="0 0 17 17" fill="none" xmlns="http://www.w3.org/2000/svg">
<g clip-path="url(#clip0)">
<path d="M10.4227 6.92094L7.86849 9.33349L6.64264 8.07234C6.50674 7.93243 6.28297 7.92925 6.1432 8.06515C6.00328 8.20118 6.0001 8.42482 6.136 8.56473L7.60625 10.074C7.74284 10.2114 7.96357 10.2161 8.10583 10.0845L10.9153 7.43464C10.9835 7.37029 11.0234 7.28144 11.026 7.18775C11.0286 7.09406 10.9939 7.00314 10.9294 6.93505C10.7927 6.79293 10.5672 6.7867 10.4227 6.92094Z" fill="#606060"/>
<path d="M8.52747 3.20801C5.60828 3.20801 3.23462 5.58167 3.23462 8.50086C3.23462 11.4202 5.60828 13.7938 8.52747 13.7938C11.4468 13.7938 13.8205 11.4202 13.8205 8.50086C13.8205 5.58167 11.4468 3.20801 8.52747 3.20801ZM8.52747 13.0853C5.99798 13.0853 3.94317 11.0269 3.94317 8.50086C3.94317 5.97483 5.99798 3.91656 8.52747 3.91656C11.0594 3.91656 13.1119 5.96902 13.1119 8.50086C13.1119 11.0327 11.0594 13.0853 8.52747 13.0853Z" fill="#606060"/>
<path d="M15.8113 6.55237L15.9282 4.45148C15.9364 4.31046 15.8597 4.17802 15.7334 4.11491L13.8628 3.16902L12.9169 1.29841C12.8525 1.17316 12.7209 1.09691 12.5803 1.10355L10.4758 1.21703L8.72216 0.058435C8.60398 -0.0194783 8.45078 -0.0194783 8.33246 0.058435L6.57879 1.21703L4.47804 1.10009C4.33688 1.09179 4.20458 1.16846 4.14147 1.29495L3.19544 3.16556L1.32497 4.11145C1.19959 4.17566 1.12348 4.30727 1.13012 4.44802L1.24692 6.54891L0.0884642 8.30258C0.010551 8.42077 0.010551 8.57396 0.0884642 8.69229L1.24346 10.4494L1.12652 12.5503C1.11836 12.6913 1.19489 12.8238 1.32138 12.8869L3.19199 13.8328L4.13788 15.7034C4.20209 15.8288 4.3337 15.9049 4.47444 15.8982L6.57533 15.7813L8.329 16.9398C8.44649 17.0202 8.60121 17.0202 8.71871 16.9398L10.4724 15.7813L12.5733 15.8982C12.7143 15.9064 12.8466 15.8297 12.9098 15.7034L13.8557 13.8328L15.7263 12.8869C15.8516 12.8225 15.9278 12.6911 15.9212 12.5503L15.8042 10.4494L16.9627 8.69575C17.0406 8.57756 17.0406 8.42423 16.9627 8.30604L15.8113 6.55237ZM15.1523 10.1589C15.1091 10.2223 15.089 10.2986 15.0957 10.3751L15.2054 12.3625L13.4376 13.2553C13.3702 13.289 13.3156 13.3438 13.2818 13.4112L12.3889 15.179L10.4015 15.0693C10.3254 15.0665 10.2503 15.0862 10.1854 15.1259L8.52731 16.2207L6.86941 15.1259C6.81184 15.087 6.74403 15.066 6.67455 15.0657H6.65684L4.66929 15.1756L3.77654 13.4076C3.74277 13.3402 3.68811 13.2856 3.62058 13.2518L1.84919 12.3625L1.95907 10.3751C1.96184 10.299 1.94205 10.2238 1.90233 10.1589L0.807674 8.50089L1.90233 6.84285C1.94565 6.7796 1.96572 6.70321 1.95907 6.62682L1.84919 4.63927L3.61712 3.74652C3.68451 3.71275 3.73918 3.65809 3.77294 3.59069L4.66569 1.82276L6.65324 1.93265C6.72922 1.93527 6.80436 1.91562 6.86941 1.87591L8.52731 0.781244L10.1854 1.87591C10.2487 1.91922 10.3251 1.93929 10.4015 1.93265L12.3889 1.82276L13.2818 3.59069C13.3156 3.65809 13.3702 3.71275 13.4376 3.74652L15.2054 4.63927L15.0957 6.62682C15.0929 6.7028 15.1127 6.77794 15.1523 6.84285L16.2471 8.50089L15.1523 10.1589Z" fill="#606060"/>
</g>
<defs>
<clipPath id="clip0">
<rect width="17" height="17" fill="white"/>
</clipPath>
</defs>
</svg>
