<svg width="17" height="17" viewBox="0 0 17 17" fill="none" xmlns="http://www.w3.org/2000/svg">
<path d="M15.8051 1.72312H13.31V1.01092C13.31 0.721338 13.0744 0.485596 12.7847 0.485596H4.21493C3.92524 0.485596 3.68961 0.721338 3.68961 1.01092V1.72312H1.19452C1.0604 1.72312 0.95166 1.83175 0.95166 1.96598V2.57905C0.95166 4.53685 1.90589 6.37915 3.50415 7.50734L3.79242 7.71083C3.8303 7.73742 3.87327 7.74992 3.91633 7.75277C4.36116 9.14945 5.42895 10.267 6.79055 10.7871V12.0237H4.94967C4.81556 12.0237 4.70682 12.1323 4.70682 12.2665V13.9227H3.62024C3.48613 13.9227 3.37739 14.0313 3.37739 14.1655V16.2713C3.37739 16.4055 3.48613 16.5142 3.62024 16.5142H13.3794C13.5135 16.5142 13.6222 16.4055 13.6222 16.2713V14.1655C13.6222 14.0313 13.5135 13.9227 13.3794 13.9227H12.2928V12.2665C12.2928 12.1323 12.184 12.0237 12.0499 12.0237H10.209V10.7871C11.5706 10.267 12.6384 9.14945 13.0833 7.75277C13.1263 7.74992 13.1693 7.73742 13.2072 7.71083L13.4954 7.50734C15.0937 6.37915 16.0479 4.53685 16.0479 2.57905V1.96598C16.0479 1.83175 15.9392 1.72312 15.8051 1.72312ZM1.43737 2.57905V2.20884H3.68961V6.29638C3.68961 6.56832 3.71769 6.83329 3.76127 7.09305C2.30583 6.0545 1.43737 4.3695 1.43737 2.57905ZM13.1365 16.0285H3.8631V14.4084H4.94967H12.0499H13.1365V16.0285ZM11.8071 13.9227H5.19253V12.5094H11.8071V13.9227ZM9.72333 12.0237H7.27626V10.9429C7.66772 11.0461 8.07637 11.1066 8.4998 11.1066C8.92323 11.1066 9.33188 11.0461 9.72333 10.9429V12.0237ZM12.8243 6.29638C12.8243 8.20021 11.586 9.81738 9.87375 10.3933C9.87269 10.3937 9.87161 10.394 9.87054 10.3945C9.43919 10.5392 8.97924 10.6208 8.4998 10.6208C8.02035 10.6208 7.5604 10.5392 7.12906 10.3945C7.12799 10.394 7.12691 10.3937 7.12584 10.3933C5.41357 9.81738 4.17533 8.20021 4.17533 6.29638V1.01092C4.17533 0.989097 4.19312 0.97131 4.21493 0.97131H12.7847C12.8065 0.97131 12.8243 0.989097 12.8243 1.01092V6.29638ZM15.5622 2.57905C15.5622 4.3695 14.6938 6.0545 13.2383 7.09305C13.2819 6.83329 13.31 6.56832 13.31 6.29638V2.20884H15.5622V2.57905Z" fill="#606060"/>
<path d="M11.0725 4.04978L9.44539 3.81309L8.71764 2.33887C8.63582 2.17285 8.36403 2.17285 8.28221 2.33887L7.55447 3.81309L5.9274 4.04978C5.83597 4.06306 5.75996 4.12709 5.73138 4.21508C5.7028 4.30283 5.72664 4.39936 5.79292 4.46387L6.97021 5.61151L6.69225 7.23206C6.67672 7.32313 6.71419 7.41515 6.7889 7.46946C6.86396 7.52401 6.9631 7.53136 7.04468 7.48796L8.49993 6.72287L9.95517 7.48796C9.99075 7.5067 10.0295 7.51595 10.0682 7.51595C10.1185 7.51595 10.1686 7.50029 10.211 7.46946C10.2857 7.41515 10.3231 7.32313 10.3076 7.23206L10.0296 5.61151L11.2069 4.46387C11.2732 4.39936 11.2971 4.30283 11.2685 4.21508C11.2399 4.12709 11.1639 4.06306 11.0725 4.04978ZM9.59931 5.35276C9.54203 5.4085 9.51594 5.4889 9.52934 5.56763L9.74564 6.82912L8.61294 6.23359C8.5776 6.21486 8.5387 6.20561 8.49993 6.20561C8.46115 6.20561 8.42226 6.21486 8.38692 6.23359L7.25422 6.82912L7.47051 5.56763C7.48391 5.4889 7.45782 5.4085 7.40055 5.35276L6.48426 4.4596L7.75072 4.27532C7.82982 4.26394 7.89812 4.21413 7.93346 4.14251L8.49993 2.9951L9.0664 4.14251C9.10173 4.21413 9.17004 4.26394 9.24913 4.27532L10.5156 4.4596L9.59931 5.35276Z" fill="#606060"/>
</svg>
