<svg width="15" height="26" viewBox="0 0 15 26" fill="none" xmlns="http://www.w3.org/2000/svg">
<path d="M5.99121 6.53627H10.5184V9.55437H5.99121V6.53627Z" fill="#3AC7CF"/>
<path d="M4.48193 6.53627H9.00908V9.55437H4.48193V6.53627Z" fill="#3AC7CF"/>
<path d="M13.9132 15.5906C14.3963 15.1075 14.6677 14.4522 14.6677 13.769C14.6677 13.0069 14.3462 12.2802 13.7824 11.7676L10.5178 8.79983H9.00879L11.6496 25.5H13.1587C13.9921 25.5 14.6677 24.8244 14.6677 23.991V22.7944C14.6677 22.1112 14.3963 21.456 13.9132 20.9729V15.5906Z" fill="#3AC7CF"/>
<path d="M12.8465 22.0399L12.4045 21.598L12.3908 15.5906C12.6572 15.1075 12.8069 14.4522 12.8069 13.769C12.8069 13.0069 12.6296 12.2802 12.3187 11.7676L10.5181 8.79982H4.48193L1.21739 11.7676C0.65351 12.2802 0.332031 13.0069 0.332031 13.769C0.332031 14.4522 0.60346 15.1075 1.08656 15.5906V20.9729C0.60346 21.456 0.332031 22.1112 0.332031 22.7944V23.991C0.332031 24.8244 1.00763 25.5 1.84109 25.5H11.6499C12.4834 25.5 13.159 24.8244 13.159 23.991V22.7944C13.159 22.5094 13.048 22.2415 12.8465 22.0399Z" fill="#74DCE2"/>
<path d="M9.43637 0.500008H8.25453L7.5 7.29075L10.5181 5.7817L9.80987 0.823901C9.78331 0.638036 9.62415 0.500008 9.43637 0.500008V0.500008Z" fill="#2B4478"/>
<path d="M5.19018 0.823901L4.48193 5.7817L7.50003 7.29075L9.00908 5.7817L8.25456 0.500008H5.56367C5.37589 0.500008 5.21674 0.638036 5.19018 0.823901Z" fill="#554FB2"/>
<path d="M10.5183 5.78165H9.00928V7.29071H10.5183C10.935 7.29071 11.2729 6.95288 11.2729 6.53618C11.2729 6.11947 10.935 5.78165 10.5183 5.78165Z" fill="#3AC7CF"/>
<path d="M9.76375 6.53618C9.76375 6.11947 9.42592 5.78165 9.00922 5.78165H4.48207C4.06537 5.78165 3.72754 6.11947 3.72754 6.53618C3.72754 6.95288 4.06537 7.29071 4.48207 7.29071H9.00922C9.42592 7.29071 9.76375 6.95288 9.76375 6.53618Z" fill="#74DCE2"/>
<path d="M12.3907 17.8541L9.37256 19.3632L10.8816 15.5906H12.3907V17.8541Z" fill="#2B4478"/>
<path d="M10.8814 20.8723L2.58154 17.8541V15.5906H10.8814V20.8723Z" fill="#554FB2"/>
<path d="M12.4041 17.8542V21.5765H10.895L7.87695 19.7153L10.895 17.8542H12.4041Z" fill="#FEF77D"/>
<path d="M2.5957 17.8542H10.8955V21.5765H2.5957V17.8542Z" fill="white"/>
</svg>
