<svg width="23" height="24" viewBox="0 0 23 24" fill="none" xmlns="http://www.w3.org/2000/svg">
<g clip-path="url(#clip0)">
<path d="M10.6079 1.39914L11.507 23.5C16.6715 23.5 20.858 19.3135 20.858 14.1491V0.5H12.1809L10.6079 1.39914Z" fill="#E83737"/>
<path d="M2.15625 0.5V14.1491C2.15625 19.3135 6.34276 23.5 11.5072 23.5V1.39914L10.8334 0.5H2.15625Z" fill="#E83737"/>
<path d="M12.1812 14.8653H10.8335V0.5H12.1812" fill="#FF5E93"/>
<path d="M15.4663 5.55685H16.8989V6.90451H15.4663V5.55685Z" fill="#D10050"/>
<path d="M16.8989 2.69154H18.3317V4.0392H16.8989V2.69154Z" fill="#D10050"/>
<path d="M14.0337 2.69154H15.4665V4.0392H14.0337V2.69154Z" fill="#D10050"/>
<path d="M7.54785 2.69154H8.98061V4.0392H7.54785V2.69154Z" fill="#FF5E93"/>
<path d="M4.68262 2.69154H6.11538V4.0392H4.68262V2.69154Z" fill="#FF5E93"/>
<path d="M6.11523 5.55691H7.54782V6.90456H6.11523V5.55691Z" fill="#FF5E93"/>
</g>
<defs>
<clipPath id="clip0">
<rect width="23" height="23" fill="white" transform="translate(0 0.5)"/>
</clipPath>
</defs>
</svg>
